# xmcd
#
# Track frame offsets:
#	150
#	23405
#	45179
#	68222
#	88850
#	117378
#	144139
#	169141
#	188767
#	209256
#
# Disc length: 3158 seconds
# Revision: 0
# Processed by: cddbd v1.5.2PL0 Copyright (c) Steve Scherf et al.
# Submitted via: dBpowerAMP V12.0
#
DISCID=7c0c540a
DTITLE=Phuong Dung - Chuyen ngay xua
DYEAR=2004
DGENRE=Country
TTITLE0=Gia tu
TTITLE1=Con gi ma mong
TTITLE2=O hai dau noi nho
TTITLE3=Chuyen ngay xua
TTITLE4=Chuyen do khong em
TTITLE5=Huong toc ma non
TTITLE6=Xot xa
TTITLE7=Bong co may
TTITLE8=Nho nguoi yeu
TTITLE9=Mot minh
EXTD=
EXTT0=
EXTT1=
EXTT2=
EXTT3=
EXTT4=
EXTT5=
EXTT6=
EXTT7=
EXTT8=
EXTT9=
PLAYORDER=
